<svg width="41" height="41" viewBox="0 0 41 41" fill="none" xmlns="http://www.w3.org/2000/svg">
<path d="M14.35 29.0416L20.5 22.8916L26.65 29.0416L29.0417 26.65L22.8917 20.5L29.0417 14.35L26.65 11.9583L20.5 18.1083L14.35 11.9583L11.9584 14.35L18.1084 20.5L11.9584 26.65L14.35 29.0416ZM20.5 37.5833C18.1368 37.5833 15.916 37.1349 13.8375 36.238C11.759 35.3411 9.95106 34.1239 8.41356 32.5864C6.87606 31.0489 5.65887 29.2409 4.762 27.1625C3.86512 25.084 3.41669 22.8632 3.41669 20.5C3.41669 18.1368 3.86512 15.9159 4.762 13.8375C5.65887 11.759 6.87606 9.951 8.41356 8.4135C9.95106 6.876 11.759 5.65881 13.8375 4.76194C15.916 3.86506 18.1368 3.41663 20.5 3.41663C22.8632 3.41663 25.084 3.86506 27.1625 4.76194C29.241 5.65881 31.049 6.876 32.5865 8.4135C34.124 9.951 35.3412 11.759 36.238 13.8375C37.1349 15.9159 37.5834 18.1368 37.5834 20.5C37.5834 22.8632 37.1349 25.084 36.238 27.1625C35.3412 29.2409 34.124 31.0489 32.5865 32.5864C31.049 34.1239 29.241 35.3411 27.1625 36.238C25.084 37.1349 22.8632 37.5833 20.5 37.5833ZM20.5 34.1666C24.3153 34.1666 27.5469 32.8427 30.1948 30.1947C32.8427 27.5468 34.1667 24.3152 34.1667 20.5C34.1667 16.6847 32.8427 13.4531 30.1948 10.8052C27.5469 8.15725 24.3153 6.83329 20.5 6.83329C16.6847 6.83329 13.4531 8.15725 10.8052 10.8052C8.15731 13.4531 6.83335 16.6847 6.83335 20.5C6.83335 24.3152 8.15731 27.5468 10.8052 30.1947C13.4531 32.8427 16.6847 34.1666 20.5 34.1666Z" fill="#48E5E1"/>
</svg>
